<mxfile host="app.diagrams.net" agent="Mozilla/5.0 (Windows NT 10.0; Win64; x64) AppleWebKit/537.36 (KHTML, like Gecko) Chrome/137.0.0.0 Safari/537.36" version="27.1.5">
  <diagram name="整体架构图" id="JmFsenI9bPFXjINXCnlD">
    <mxGraphModel dx="1665" dy="743" grid="1" gridSize="10" guides="1" tooltips="1" connect="1" arrows="1" fold="1" page="1" pageScale="1" pageWidth="1654" pageHeight="2336" math="0" shadow="0">
      <root>
        <mxCell id="0" />
        <mxCell id="1" parent="0" />
        <mxCell id="w_vgOvvoxs-VGrtm53rR-1" value="技术架构图" style="swimlane;whiteSpace=wrap;html=1;" vertex="1" parent="1">
          <mxGeometry x="40" y="50" width="640" height="510" as="geometry">
            <mxRectangle x="40" y="50" width="140" height="30" as="alternateBounds" />
          </mxGeometry>
        </mxCell>
        <mxCell id="w_vgOvvoxs-VGrtm53rR-4" value="" style="swimlane;startSize=0;" vertex="1" parent="w_vgOvvoxs-VGrtm53rR-1">
          <mxGeometry x="40" y="70" width="560" height="80" as="geometry" />
        </mxCell>
      </root>
    </mxGraphModel>
  </diagram>
</mxfile>
